<svg width="98" height="101" viewBox="0 0 98 101" fill="none" xmlns="http://www.w3.org/2000/svg">
<path d="M97.693 56.0805L88.366 37.8455C87.6151 36.3914 86.2319 35.5268 84.7301 35.5268H13.2362C11.7344 35.5268 10.3117 36.4307 9.6003 37.8455L0.273294 56.0805C-0.121918 56.8665 -0.0823964 57.8097 0.352337 58.5564C0.78707 59.2245 1.45893 59.6175 2.24935 59.6175H10.4302V96.8735C10.4302 99.1529 12.1297 101 14.2243 101H83.7421C85.8367 101 87.5361 99.1529 87.5361 96.8735V81.1537C87.5361 80.6428 87.1409 80.2498 86.6271 80.2498C86.1133 80.2498 85.7181 80.6428 85.7181 81.1537V96.8735C85.7181 98.1311 84.8486 99.1922 83.7421 99.1922H49.8724V40.2035L50.979 42.4043L58.8832 57.7704C59.476 58.9101 60.5826 59.6175 61.8078 59.6175H85.7576V74.1584C85.7576 74.6693 86.1528 75.0623 86.6666 75.0623C87.1804 75.0623 87.5756 74.6693 87.5756 74.1584V59.6175H95.7565C96.5074 59.6175 97.2188 59.2245 97.6535 58.5564C98.0882 57.8097 98.1278 56.8665 97.693 56.0805ZM1.81462 57.8097V57.2202C1.81462 57.1023 1.85414 56.9844 1.89366 56.9058L11.2207 38.6708C11.6554 37.8455 12.4063 37.3346 13.2362 37.3346H47.5011L47.0664 38.1992L42.2843 47.5132L37.4627 56.9451C37.1861 57.4953 36.7118 57.8097 36.1585 57.8097H1.81462ZM48.0939 99.1922H14.2243C13.1177 99.1922 12.2482 98.1704 12.2482 96.8735V59.6175H36.1981C37.4232 59.6175 38.5298 58.9101 39.1226 57.7704L46.9873 42.4043L48.0939 40.2035V99.1922ZM96.1517 57.8097H61.7683C61.2545 57.8097 60.7407 57.4953 60.4641 56.9451L50.8604 38.1992L50.4257 37.3346H84.6906C85.5205 37.3346 86.3109 37.8455 86.7061 38.6708L96.0331 56.9058C96.0727 57.0237 96.1122 57.1023 96.1122 57.2202V57.8097H96.1517Z" fill="black"/>
<path d="M45.0113 28.9638C45.1694 29.0424 45.3275 29.0817 45.4855 29.0817C45.8017 29.0817 46.1179 28.9245 46.276 28.6494C46.3945 28.4529 46.4341 28.1778 46.355 27.9813C46.276 27.7455 46.1574 27.549 45.9203 27.4311C42.0867 25.1518 33.1154 18.8638 33.0759 9.27471C33.0759 7.27043 33.8663 5.42335 35.2891 4.00856C36.7118 2.59377 38.5693 1.84708 40.5454 1.84708C40.9011 1.84708 41.2173 1.88638 41.5729 1.92568C45.0508 2.39728 46.5921 4.83385 47.1059 5.61984C47.1454 5.69844 47.2245 5.77704 47.2245 5.81634C47.7382 6.36654 48.3706 6.64163 49.0029 6.64163C49.6353 6.64163 50.2281 6.32724 50.7419 5.77704C50.7419 5.73774 50.8209 5.65914 50.8604 5.58054C51.4532 4.63735 53.3107 1.84708 57.3814 1.80778C61.4916 1.80778 64.8904 5.14825 64.8904 9.23541C64.8904 18.3529 56.8281 24.523 52.0461 27.3918C51.6113 27.6669 51.4928 28.2171 51.7299 28.6494C51.888 28.9245 52.2041 29.0817 52.5203 29.0817C52.6784 29.0817 52.8365 29.0424 52.9946 28.9638C61.8473 23.6584 66.7479 16.663 66.7479 9.27471C66.7084 3.45837 61.9264 0 57.3024 0C54.1012 0 51.3347 1.57198 49.4772 4.40156L48.9634 5.18755L48.4892 4.40156C46.7897 1.65058 43.8256 0 40.5849 0C38.0951 0 35.7633 0.98249 33.9849 2.75097C32.2064 4.51945 31.2579 6.83813 31.2579 9.31401C31.2579 16.663 36.2771 23.8549 45.0113 28.9638Z" fill="black"/>
</svg>
