<svg width="107" height="120" viewBox="0 0 107 120" fill="none" xmlns="http://www.w3.org/2000/svg">
<path d="M88.4078 46.2917L44.6972 25.205C44.5833 25.1668 44.5074 25.1287 44.3936 25.1287C44.2798 25.1287 44.2039 25.1668 44.128 25.205L0.379433 46.3298C0.151773 46.4442 0 46.673 0 46.9018V98.1888C0 98.4557 0.151773 98.6845 0.379433 98.7989L44.128 119.924C44.2418 119.962 44.3177 120 44.4316 120C44.5454 120 44.6213 119.962 44.6972 119.924L88.4457 98.7607C88.6734 98.6463 88.8252 98.4175 88.8252 98.1888V46.9018C88.7872 46.6349 88.6355 46.4061 88.4078 46.2917ZM32.3656 32.2974L44.0521 26.654L44.3936 26.5014L44.7351 26.654L85.2206 46.2154L86.6624 46.9018L85.2206 47.5882L73.4961 53.2698L73.1167 53.4604L72.7752 53.2317C72.7372 53.1935 72.6993 53.1935 72.6613 53.1554L72.6234 53.1173L32.4035 33.7083L30.9617 33.0219L32.3656 32.2974ZM20.9067 37.9028L29.1784 33.899L29.5199 33.7464L29.8613 33.899L70.3089 53.4223L71.7507 54.1087L70.3089 54.795L62.0372 58.7989L61.6957 58.9514L61.3543 58.7989L20.9067 39.2755L19.5028 38.5891L20.9067 37.9028ZM71.6369 55.5958V72.0686L71.2195 72.2593L63.4791 75.9962L62.3787 76.53V60.0572L62.7961 59.8665L70.5365 56.1296L71.6369 55.5958ZM87.0798 97.9981L46.139 117.75L45.0387 118.284V68.408L45.456 68.2173L55.2074 63.5272C55.3592 63.4509 55.473 63.2984 55.5489 63.1459C55.5869 62.9933 55.5869 62.8027 55.511 62.6883C55.3972 62.4595 55.1695 62.307 54.9039 62.307C54.828 62.307 54.7142 62.3451 54.6383 62.3832L44.6972 67.1878L44.3557 67.3403L44.0142 67.1878L40.106 65.2812C40.0301 65.2431 39.9163 65.205 39.8404 65.205C39.5748 65.205 39.3472 65.3575 39.2713 65.5481C39.1954 65.7007 39.1954 65.8913 39.2333 66.0438C39.2713 66.1964 39.423 66.3108 39.5369 66.387L43.2933 68.1792L43.7106 68.3699V118.246L42.6103 117.712L1.74539 97.9981L1.32801 97.8074V47.9314L2.42837 48.4652L33.6177 63.489C33.7316 63.5272 33.8074 63.5653 33.9213 63.5653C34.1489 63.5653 34.4145 63.4509 34.5284 63.184C34.6043 63.0315 34.6043 62.8408 34.5663 62.6883C34.5284 62.5357 34.3766 62.4214 34.2628 62.3451L3.56667 47.5882L2.16277 46.9018L3.60461 46.2154L17.6057 39.4662L17.9472 39.3136L18.2887 39.4662L60.6713 59.9428L61.0886 60.1335V60.4766C61.0886 60.5148 61.0886 60.591 61.0886 60.6292V77.5214C61.0886 77.7502 61.2025 77.9409 61.3922 78.0553C61.506 78.1315 61.6199 78.1697 61.7337 78.1697C61.8475 78.1697 61.9234 78.1315 61.9993 78.0934L72.5475 72.9838C72.7752 72.8694 72.9269 72.6406 72.9269 72.3737V54.8713L73.3443 54.6806L86.3589 48.3889L87.4592 47.8551L87.4972 97.7312L87.0798 97.9981Z" fill="#111111"/>
<path d="M13.394 92.5071L6.98156 89.4185C6.90567 89.3804 6.79184 89.3422 6.71596 89.3422C6.45035 89.3422 6.2227 89.4948 6.14681 89.6854C6.07092 89.8379 6.07092 90.0286 6.10887 90.1811C6.14681 90.3336 6.29858 90.448 6.41241 90.5243L12.8628 93.613C12.9766 93.6511 13.0525 93.6892 13.1663 93.6892C13.394 93.6892 13.6596 93.5748 13.7734 93.3079C13.8493 93.0791 13.6975 92.6597 13.394 92.5071Z" fill="#111111"/>
<path d="M19.2752 88.6559L6.94362 82.7073C6.86773 82.6692 6.7539 82.6311 6.64007 82.6311C6.37447 82.6311 6.14681 82.7836 6.07092 82.9743C5.99504 83.1268 5.99504 83.3174 6.03298 83.47C6.07092 83.6225 6.2227 83.7369 6.33652 83.8132L18.6681 89.7617C18.7819 89.7998 18.8578 89.8379 18.9716 89.8379C19.1993 89.8379 19.4649 89.7235 19.5787 89.4566C19.7684 89.2278 19.6167 88.8084 19.2752 88.6559Z" fill="#111111"/>
<path d="M106.241 49.9523C105.786 49.9523 105.406 50.2955 105.406 50.715C105.255 54.1468 104.723 57.5786 103.851 60.8961C103.699 61.4681 103.319 61.9638 102.788 62.307C102.447 62.4976 102.029 62.612 101.612 62.612C101.422 62.612 101.233 62.5739 101.043 62.5357C100.436 62.3832 99.9426 61.9638 99.639 61.4299C99.3355 60.8961 99.2596 60.286 99.4113 59.6759C101.081 53.5367 101.309 46.9781 100.132 40.7245C98.8801 34.1659 96.1862 28.1411 92.0883 22.8408C87.9904 17.5405 82.8681 13.346 76.8731 10.4862C71.1436 7.74071 64.7312 6.25357 58.3567 6.25357C48.9468 6.25357 40.0301 9.26597 32.5553 15.0238C32.4035 15.1382 32.2897 15.3289 32.2518 15.5577C32.2138 15.7865 32.2897 15.9771 32.4035 16.1296L33.428 17.4643L34.2628 18.5701L32.8968 18.6845L24.8908 19.409L23.6766 19.5234L24.094 18.3794L26.8638 10.8294L27.3191 9.53289L28.1539 10.6387L28.5713 11.1725C28.7231 11.3632 28.9507 11.4776 29.2163 11.4776C29.3301 11.4776 29.5199 11.4395 29.7096 11.3251C38.0191 4.9571 47.9223 1.56339 58.3188 1.56339C60.3677 1.56339 62.4546 1.71592 64.5035 1.98284C76.9489 3.6225 88.0284 10.0286 95.6929 19.9809C100.246 25.8913 103.244 32.5643 104.61 39.8475C104.875 41.1821 105.065 42.5548 105.179 43.8513C105.217 44.2707 105.558 44.5758 105.976 44.5758C106.013 44.5758 106.013 44.5758 106.051 44.5758C106.279 44.5377 106.469 44.4614 106.583 44.3089C106.734 44.1563 106.772 43.9275 106.772 43.7369C106.621 42.2116 106.431 40.8389 106.165 39.5806C104.723 32.0686 101.65 25.1668 96.945 19.0276C89.0528 8.73213 77.6319 2.09724 64.7312 0.419447C62.6064 0.152526 60.4057 0 58.2809 0C48.0741 0 38.2848 3.16492 29.9752 9.15157L29.3681 9.57102L28.9128 8.99905L27.6986 7.39752C27.5468 7.20686 27.3191 7.09247 27.0535 7.09247C27.0156 7.09247 26.9777 7.09247 26.9397 7.09247C26.6362 7.1306 26.4085 7.32126 26.3326 7.58818L21.7415 20.0953C21.6656 20.3622 21.7035 20.6292 21.8553 20.858C22.0071 21.0486 22.2348 21.163 22.5004 21.163C22.5383 21.163 22.5383 21.163 22.5762 21.163L35.8564 19.9809C36.1599 19.9428 36.3876 19.7903 36.5394 19.5234C36.6532 19.2564 36.6152 18.9514 36.4255 18.7226L34.6422 16.3966L34.1489 15.7483L34.794 15.2908C41.6996 10.4099 49.8574 7.81697 58.3188 7.81697C71.1436 7.81697 82.9819 13.613 90.7603 23.756C94.6684 28.8656 97.2865 34.6616 98.5007 40.9914C99.639 47.0162 99.4113 53.3079 97.8177 59.2564C97.2486 61.3155 98.5007 63.489 100.588 64.061C100.929 64.1373 101.271 64.2135 101.612 64.2135C102.295 64.2135 102.978 64.0229 103.547 63.6797C104.458 63.1459 105.103 62.307 105.368 61.3155C106.279 57.9218 106.848 54.3756 107 50.7912C107 50.6006 106.924 50.3718 106.772 50.2193C106.659 50.0667 106.469 49.9905 106.241 49.9523Z" fill="#111111"/>
</svg>
