<svg width="91" height="101" viewBox="0 0 91 101" fill="none" xmlns="http://www.w3.org/2000/svg">
<path d="M61.4946 80.2636H5.53226C3.31183 80.2636 1.46774 78.4506 1.46774 76.1844V20.7741H79.8979V42.4925C79.8979 42.908 80.2366 43.2479 80.6505 43.2479C81.0645 43.2479 81.4032 42.908 81.4032 42.4925V12.0112C81.4032 8.95176 78.9194 6.45886 75.871 6.45886H73.4247V4.00374C73.4247 1.81301 71.6559 0.0377711 69.4731 0.0377711C67.2903 0.0377711 65.5215 1.81301 65.5215 4.00374V6.45886H21.5269C21.1129 6.45886 20.7742 6.7988 20.7742 7.21429C20.7742 7.62977 21.1129 7.96971 21.5269 7.96971H65.5215V10.4248C65.5215 12.6156 67.2903 14.3908 69.4731 14.3908C71.6559 14.3908 73.4247 12.6156 73.4247 10.4248V7.96971H75.871C78.0914 7.96971 79.9355 9.78272 79.9355 12.049V19.301H1.46774V12.0112C1.46774 9.78272 3.27419 7.93194 5.53226 7.93194H7.9785V10.3871C7.9785 12.5778 9.74731 14.353 11.9301 14.353C14.1129 14.353 15.8817 12.5778 15.8817 10.3871V3.96597C15.8817 2.90838 15.4677 1.92633 14.7151 1.1709C13.9624 0.415482 12.9839 0 11.9301 0C9.74731 0 7.9785 1.77524 7.9785 3.96597V6.45886H5.53226C2.48387 6.45886 0 8.95176 0 12.0112V76.1844C0 79.2438 2.48387 81.7367 5.53226 81.7367H61.457C61.871 81.7367 62.2097 81.3968 62.2097 80.9813C62.2097 80.5658 61.9086 80.2636 61.4946 80.2636ZM71.9194 10.4248C71.9194 11.7846 70.828 12.88 69.4731 12.88C68.1183 12.88 67.0269 11.7846 67.0269 10.4248V4.00374C67.0269 2.64398 68.1183 1.54862 69.4731 1.54862C70.828 1.54862 71.9194 2.64398 71.9194 4.00374V10.4248ZM9.48387 4.00374C9.48387 2.64398 10.5753 1.54862 11.9301 1.54862C13.2849 1.54862 14.3763 2.64398 14.3763 4.00374V10.4248C14.3763 11.7846 13.2849 12.88 11.9301 12.88C10.5753 12.88 9.48387 11.7846 9.48387 10.4248V4.00374Z" fill="black"/>
<path d="M42.3011 33.7296H39.1021C38.6882 33.7296 38.3495 34.0696 38.3495 34.485C38.3495 34.9005 38.6882 35.2405 39.1021 35.2405H42.3011C42.7151 35.2405 43.0538 34.9005 43.0538 34.485C43.0538 34.0696 42.7151 33.7296 42.3011 33.7296Z" fill="black"/>
<path d="M53.4785 33.7296H50.2796C49.8656 33.7296 49.5269 34.0696 49.5269 34.485C49.5269 34.9005 49.8656 35.2405 50.2796 35.2405H53.4785C53.8925 35.2405 54.2312 34.9005 54.2312 34.485C54.2312 34.0696 53.8925 33.7296 53.4785 33.7296Z" fill="black"/>
<path d="M31.1237 33.7296H27.9247C27.5108 33.7296 27.172 34.0696 27.172 34.485C27.172 34.9005 27.5108 35.2405 27.9247 35.2405H31.1237C31.5376 35.2405 31.8763 34.9005 31.8763 34.485C31.8763 34.0696 31.5376 33.7296 31.1237 33.7296Z" fill="black"/>
<path d="M42.3011 41.7371H39.1021C38.6882 41.7371 38.3495 42.077 38.3495 42.4925C38.3495 42.908 38.6882 43.2479 39.1021 43.2479H42.3011C42.7151 43.2479 43.0538 42.908 43.0538 42.4925C43.0538 42.077 42.7151 41.7371 42.3011 41.7371Z" fill="black"/>
<path d="M53.4785 41.7371H50.2796C49.8656 41.7371 49.5269 42.077 49.5269 42.4925C49.5269 42.908 49.8656 43.2479 50.2796 43.2479H53.4785C53.8925 43.2479 54.2312 42.908 54.2312 42.4925C54.2312 42.077 53.8925 41.7371 53.4785 41.7371Z" fill="black"/>
<path d="M31.1237 41.7371H27.9247C27.5108 41.7371 27.172 42.077 27.172 42.4925C27.172 42.908 27.5108 43.2479 27.9247 43.2479H31.1237C31.5376 43.2479 31.8763 42.908 31.8763 42.4925C31.8763 42.077 31.5376 41.7371 31.1237 41.7371Z" fill="black"/>
<path d="M42.3011 49.7823H39.1021C38.6882 49.7823 38.3495 50.1223 38.3495 50.5378C38.3495 50.9533 38.6882 51.2932 39.1021 51.2932H42.3011C42.7151 51.2932 43.0538 50.9533 43.0538 50.5378C43.0538 50.1223 42.7151 49.7823 42.3011 49.7823Z" fill="black"/>
<path d="M53.4785 49.7823H50.2796C49.8656 49.7823 49.5269 50.1223 49.5269 50.5378C49.5269 50.9533 49.8656 51.2932 50.2796 51.2932H53.4785C53.8925 51.2932 54.2312 50.9533 54.2312 50.5378C54.2312 50.1223 53.8925 49.7823 53.4785 49.7823Z" fill="black"/>
<path d="M31.1237 49.7823H27.9247C27.5108 49.7823 27.172 50.1223 27.172 50.5378C27.172 50.9533 27.5108 51.2932 27.9247 51.2932H31.1237C31.5376 51.2932 31.8763 50.9533 31.8763 50.5378C31.8763 50.1223 31.5376 49.7823 31.1237 49.7823Z" fill="black"/>
<path d="M42.3011 57.7898H39.1021C38.6882 57.7898 38.3495 58.1298 38.3495 58.5452C38.3495 58.9607 38.6882 59.3007 39.1021 59.3007H42.3011C42.7151 59.3007 43.0538 58.9607 43.0538 58.5452C43.0538 58.1298 42.7151 57.7898 42.3011 57.7898Z" fill="black"/>
<path d="M53.4785 57.7898H50.2796C49.8656 57.7898 49.5269 58.1298 49.5269 58.5452C49.5269 58.9607 49.8656 59.3007 50.2796 59.3007H53.4785C53.8925 59.3007 54.2312 58.9607 54.2312 58.5452C54.2312 58.1298 53.8925 57.7898 53.4785 57.7898Z" fill="black"/>
<path d="M31.1237 57.7898H27.9247C27.5108 57.7898 27.172 58.1298 27.172 58.5452C27.172 58.9607 27.5108 59.3007 27.9247 59.3007H31.1237C31.5376 59.3007 31.8763 58.9607 31.8763 58.5452C31.8763 58.1298 31.5376 57.7898 31.1237 57.7898Z" fill="black"/>
<path d="M42.3011 65.7973H39.1021C38.6882 65.7973 38.3495 66.1373 38.3495 66.5527C38.3495 66.9682 38.6882 67.3082 39.1021 67.3082H42.3011C42.7151 67.3082 43.0538 66.9682 43.0538 66.5527C43.0538 66.1373 42.7151 65.7973 42.3011 65.7973Z" fill="black"/>
<path d="M53.4785 65.7973H50.2796C49.8656 65.7973 49.5269 66.1373 49.5269 66.5527C49.5269 66.9682 49.8656 67.3082 50.2796 67.3082H53.4785C53.8925 67.3082 54.2312 66.9682 54.2312 66.5527C54.2312 66.1373 53.8925 65.7973 53.4785 65.7973Z" fill="black"/>
<path d="M31.1237 65.7973H27.9247C27.5108 65.7973 27.172 66.1373 27.172 66.5527C27.172 66.9682 27.5108 67.3082 27.9247 67.3082H31.1237C31.5376 67.3082 31.8763 66.9682 31.8763 66.5527C31.8387 66.1373 31.5376 65.7973 31.1237 65.7973Z" fill="black"/>
<path d="M19.9086 33.7296H16.7097C16.2957 33.7296 15.957 34.0696 15.957 34.485C15.957 34.9005 16.2957 35.2405 16.7097 35.2405H19.9086C20.3226 35.2405 20.6613 34.9005 20.6613 34.485C20.6613 34.0696 20.3226 33.7296 19.9086 33.7296Z" fill="black"/>
<path d="M19.9086 41.7371H16.7097C16.2957 41.7371 15.957 42.077 15.957 42.4925C15.957 42.908 16.2957 43.2479 16.7097 43.2479H19.9086C20.3226 43.2479 20.6613 42.908 20.6613 42.4925C20.6613 42.077 20.3226 41.7371 19.9086 41.7371Z" fill="black"/>
<path d="M19.9086 49.7823H16.7097C16.2957 49.7823 15.957 50.1223 15.957 50.5378C15.957 50.9533 16.2957 51.2932 16.7097 51.2932H19.9086C20.3226 51.2932 20.6613 50.9533 20.6613 50.5378C20.6613 50.1223 20.3226 49.7823 19.9086 49.7823Z" fill="black"/>
<path d="M19.9086 57.7898H16.7097C16.2957 57.7898 15.957 58.1298 15.957 58.5452C15.957 58.9607 16.2957 59.3007 16.7097 59.3007H19.9086C20.3226 59.3007 20.6613 58.9607 20.6613 58.5452C20.6613 58.1298 20.3226 57.7898 19.9086 57.7898Z" fill="black"/>
<path d="M19.9086 65.7973H16.7097C16.2957 65.7973 15.957 66.1373 15.957 66.5527C15.957 66.9682 16.2957 67.3082 16.7097 67.3082H19.9086C20.3226 67.3082 20.6613 66.9682 20.6613 66.5527C20.6613 66.1373 20.3226 65.7973 19.9086 65.7973Z" fill="black"/>
<path d="M64.6935 33.7296H61.4946C61.0806 33.7296 60.7419 34.0696 60.7419 34.485C60.7419 34.9005 61.0806 35.2405 61.4946 35.2405H64.6935C65.1075 35.2405 65.4462 34.9005 65.4462 34.485C65.4462 34.0696 65.0699 33.7296 64.6935 33.7296Z" fill="black"/>
<path d="M64.6935 41.7371H61.4946C61.0806 41.7371 60.7419 42.077 60.7419 42.4925C60.7419 42.908 61.0806 43.2479 61.4946 43.2479H64.6935C65.1075 43.2479 65.4462 42.908 65.4462 42.4925C65.4462 42.077 65.0699 41.7371 64.6935 41.7371Z" fill="black"/>
<path d="M91 97.034C91 95.3343 89.9086 93.8235 88.328 93.2947L87.8011 93.1058V85.2494C87.8011 81.4346 85.6936 77.9218 82.3441 76.1088C81.7796 75.8067 81.4409 75.2023 81.4409 74.598C81.4409 73.9559 81.7796 73.3893 82.3441 73.0871C85.7312 71.2741 87.8011 67.7614 87.8011 63.9465V56.0901L88.328 55.9013C89.9462 55.3725 91 53.8616 91 52.1619C91 49.9712 89.2312 48.196 87.0484 48.196H67.8548C65.672 48.196 63.9032 49.9712 63.9032 52.1619C63.9032 53.8616 64.9946 55.3725 66.5753 55.9013L67.1021 56.0901V63.9465C67.1021 67.7614 69.2097 71.2741 72.5591 73.0871C73.1237 73.3893 73.4624 73.9936 73.4624 74.598C73.4624 75.2401 73.1237 75.8067 72.5591 76.1088C69.172 77.9218 67.1021 81.4346 67.1021 85.2494V93.1058L66.5753 93.2947C64.957 93.8235 63.9032 95.3343 63.9032 97.034C63.9032 99.2248 65.672 101 67.8548 101H87.0484C89.2312 101 91 99.2248 91 97.034ZM68.7204 65.1552C68.6452 64.7397 68.6452 64.3242 68.6452 63.9088V56.0901H77.4892C77.9032 56.0901 78.2419 55.7502 78.2419 55.3347C78.2419 54.9192 77.9032 54.5793 77.4892 54.5793H67.8925C66.5376 54.5793 65.4462 53.4839 65.4462 52.1242C65.4462 50.7644 66.5376 49.669 67.8925 49.669H87.086C88.4409 49.669 89.5323 50.7644 89.5323 52.1242C89.5323 53.4839 88.4409 54.5793 87.086 54.5793H83.8871C83.4731 54.5793 83.1344 54.9192 83.1344 55.3347C83.1344 55.7502 83.4731 56.0901 83.8871 56.0901H86.3333V63.9088C86.3333 64.3242 86.2957 64.7397 86.2581 65.1552L86.1828 65.7973H68.871L68.7204 65.1552ZM68.6075 86.1937V85.2117C68.6075 81.9256 70.414 78.9417 73.3118 77.3931C74.3656 76.8265 75.0054 75.7311 75.0054 74.5602C75.0054 73.3893 74.3656 72.2939 73.3118 71.7274C71.8817 70.972 70.6774 69.8388 69.8871 68.4413L69.2097 67.3082H85.7688L85.0914 68.4413C84.2634 69.8388 83.0591 70.972 81.6667 71.7274C80.6129 72.2939 79.9731 73.3893 79.9731 74.5602C79.9731 75.7689 80.6129 76.8265 81.6667 77.3931C84.5645 78.9417 86.371 81.9256 86.371 85.2117V87.5913L85.2043 86.7981L77.9409 81.9256C77.828 81.85 77.6774 81.8123 77.5269 81.8123C77.3763 81.8123 77.2258 81.85 77.1129 81.9256L69.8495 86.7981L68.6828 87.5913V86.1937H68.6075ZM86.2957 89.4043V93.0681H68.6075V89.4043L68.9462 89.1776L77.0376 83.7764L77.4516 83.512L77.8656 83.7764L85.957 89.1776L86.2957 89.4043ZM67.8925 99.4892C66.5376 99.4892 65.4462 98.3938 65.4462 97.034C65.4462 95.6743 66.5376 94.5789 67.8925 94.5789H87.086C88.4409 94.5789 89.5323 95.6743 89.5323 97.034C89.5323 98.3938 88.4409 99.4892 87.086 99.4892H67.8925Z" fill="black"/>
</svg>
