<svg width="68" height="120" viewBox="0 0 68 120" fill="none" xmlns="http://www.w3.org/2000/svg">
<path d="M56.2979 69.3907C52.4124 56.3108 48.9323 47.4231 47.9525 45.0084L47.8511 44.7401L47.9187 44.4382L51.5339 26.4617L52.0407 26.2605L63.0215 21.5987C64.3055 21.062 64.9812 19.5864 64.542 18.2784L60.3862 6.03689C59.609 3.68921 57.6156 2.0123 55.1829 1.64338C48.02 0.536613 40.722 0 33.5253 0C26.3287 0 18.9968 0.536613 11.8678 1.64338C9.40129 2.0123 7.40784 3.68921 6.63074 6.00335L2.54249 18.2113C2.10325 19.5193 2.74521 20.995 4.06291 21.5316L15.0437 26.1934L15.5506 26.3946L19.1658 44.3712L19.2334 44.673L19.132 44.9413C18.1522 47.3561 14.6721 56.2102 10.7866 69.3236C5.71848 86.1934 2.13704 102.929 0.0084468 119.128C-0.0253404 119.363 0.042234 119.564 0.21117 119.732C0.346319 119.899 0.582829 120 0.819339 120H66.2313C66.4678 120 66.6706 119.899 66.8395 119.732C66.9746 119.564 67.0422 119.329 67.0422 119.128C64.8798 102.929 61.2984 86.1934 56.2979 69.3907ZM21.4633 2.07937C25.4502 1.74399 29.5047 1.5763 33.5253 1.5763C37.5122 1.5763 41.5329 1.74399 45.486 2.07937L47.2091 2.21353L46.2631 3.62214C42.4789 9.29011 38.3907 13.6501 34.0659 16.635L33.4578 17.0375L32.8834 16.635C28.5924 13.6501 24.5042 9.29011 20.72 3.62214L19.774 2.21353L21.4633 2.07937ZM15.0437 16.1655C14.9762 15.7965 14.6383 15.5282 14.2666 15.5282C14.2329 15.5282 14.1653 15.5282 14.0977 15.5282C13.6585 15.6288 13.3882 16.0313 13.4895 16.4338L14.7397 22.6383L15.1113 24.5165L13.3544 23.8122L4.67108 20.123C4.13048 19.8882 3.86019 19.2845 4.02912 18.7144L8.11737 6.50643C8.72554 4.7289 10.246 3.45444 12.1043 3.18614C13.8612 2.91783 15.6181 2.68306 17.4088 2.48183L18.0508 2.41476L18.3887 2.95137C21.4633 7.81442 26.4976 14.455 33.0523 18.6473C33.1875 18.7144 33.3226 18.7814 33.4916 18.7814C33.6605 18.7814 33.7956 18.7479 33.9308 18.6473C40.5193 14.455 45.5536 7.78088 48.6282 2.95137L48.9661 2.41476L49.608 2.48183C51.3988 2.68306 53.2233 2.91783 55.014 3.18614C56.8723 3.45444 58.3927 4.7289 59.0009 6.50643L63.0891 18.7144C63.2581 19.251 62.9878 19.8882 62.4472 20.123L53.7639 23.8122L51.9731 24.5836L52.3448 22.7054L53.5949 16.5008C53.6287 16.2996 53.5949 16.0984 53.4936 15.8972C53.3922 15.7295 53.1895 15.5953 52.9868 15.5618C52.9192 15.5618 52.8854 15.5282 52.8178 15.5282C52.4462 15.5282 52.1083 15.7965 52.0407 16.1655L46.601 43.1302L46.432 43.9352H20.6186L20.4497 43.1302L15.0437 16.1655ZM47.716 118.424L47.6484 117.485C46.2631 92.834 43.7291 71.5036 41.837 57.9877C41.7694 57.6188 41.4315 57.3169 41.0599 57.3169C41.0261 57.3169 40.9923 57.3169 40.9585 57.3169C40.7558 57.3505 40.5531 57.4511 40.4517 57.6188C40.3166 57.7865 40.2828 57.9877 40.2828 58.1889C42.1411 71.6378 44.6751 92.834 46.0604 117.384L46.128 118.457H20.8551L20.9227 117.384C22.308 92.8675 24.842 71.6713 26.7003 58.1889C26.7679 57.7529 26.4638 57.384 26.0246 57.3169C25.9908 57.3169 25.957 57.3169 25.9232 57.3169C25.5178 57.3169 25.1799 57.6188 25.1461 57.9877C23.254 71.5372 20.72 92.834 19.3347 117.485L19.2671 118.424H1.69781L1.86674 117.283C6.86725 81.0621 18.1184 51.649 20.3483 46.1152L20.6186 45.4779H27.0382L26.8355 46.6518C26.6328 47.7921 26.4638 49.033 26.2611 50.3074C26.2273 50.5087 26.2949 50.7099 26.3962 50.8776C26.4976 51.0453 26.7003 51.1459 26.903 51.1794C26.9368 51.1794 26.9706 51.1794 27.0382 51.1794C27.4099 51.1794 27.7477 50.8776 27.8153 50.5087C28.0518 48.9994 28.2545 47.5908 28.491 46.2828L28.6262 45.4444H38.3907L38.5258 46.2828C38.7286 47.5573 38.9651 48.9994 39.2016 50.5087C39.2692 50.8776 39.607 51.1794 39.9787 51.1794C40.0125 51.1794 40.0463 51.1794 40.0801 51.1794C40.5193 51.1124 40.8234 50.7099 40.7558 50.2739C40.5531 48.9659 40.3504 47.725 40.1814 46.6182L39.9787 45.4444H46.432L46.7023 46.0816C48.8985 51.6154 60.1496 80.995 65.1501 117.25L65.3191 118.39H47.716V118.424Z" fill="black"/>
</svg>
