<svg xmlns="http://www.w3.org/2000/svg" baseProfile="tiny" version="1.2" viewBox="0 0 140 140">
  <defs/>
  <path d="M63.9 106.9H48.6c-.5 0-.9.4-.9.9V123c0 .5.4.9.9.9h15.3c.5 0 .9-.4.9-.9v-15.2c0-.5-.4-.9-.9-.9zm-1 15.1H49.5v-13.4H63V122zM89.1 106.9H73.8c-.5 0-.9.4-.9.9V123c0 .5.4.9.9.9h15.3c.5 0 .9-.4.9-.9v-15.2c0-.5-.4-.9-.9-.9zm-.9 15.1H74.7v-13.4h13.5V122zM99 123.8h15.3c.5 0 .9-.4.9-.9v-15.2c0-.5-.4-.9-.9-.9H99c-.5 0-.9.4-.9.9v15.2c0 .5.4.9.9.9zm.9-15.1h13.5V122H99.9v-13.3zM38.7 106.9H23.4c-.5 0-.9.4-.9.9V123c0 .5.4.9.9.9h15.3c.5 0 .9-.4.9-.9v-15.2c0-.5-.4-.9-.9-.9zm-.9 15.1H24.3v-13.4h13.5V122zM42.8 83.2c.2 0 .5-.1.7-.2.2-.2.2-.4.2-.7 0-.2-.1-.5-.2-.7-.2-.2-.4-.2-.7-.2-.2 0-.5.1-.7.2-.2.2-.2.4-.2.7 0 .2.1.5.2.7.2.1.4.2.7.2z"/>
  <path d="M105.4 72.4c-.2-.2-.4-.2-.7-.2-.1 0-.2 0-.3.1-.3.1-.6.5-.6.8v17.6L85.4 72.4c-.2-.2-.4-.2-.7-.2-.1 0-.2 0-.3.1-.3.1-.6.5-.6.8v17.6L65.4 72.4c-.2-.2-.4-.2-.7-.2-.1 0-.2 0-.3.1-.3.1-.6.5-.6.8V92h-5.4V50.7h2.1c.5 0 .9-.4.9-.9s-.4-.9-.9-.9H39.8c-.5 0-.9.4-.9.9s.4.9.9.9h2.1v21.8c0 .5.4.9.9.9s.9-.4.9-.9V50.7h13V92h-13v-3.7c0-.5-.4-.9-.9-.9s-.9.4-.9.9V92h-10V50.7H34c.5 0 .9-.4.9-.9s-.4-.9-.9-.9H13.1c-.5 0-.9.4-.9.9s.4.9.9.9h2.1V92h-4.4c-.5 0-.9.4-.9.9v45c0 .5.4.9.9.9h113.9c.5 0 .9-.4.9-.9v-45c0-.2-.1-.5-.2-.7l-20-19.8zM17.1 50.7h13V92h-13V50.7zM123.8 137H11.7V93.8h53c.5 0 .9-.4.9-.9V75.3L84 93.6c.2.2.4.2.7.2.1 0 .2 0 .3-.1.3-.1.6-.5.6-.8V75.3L104 93.6c.2.2.4.2.7.2.1 0 .2 0 .3-.1.3-.1.6-.5.6-.8V75.3l18.2 18V137z"/>
  <path fill="#7ECB80" d="M24.6 43.4s1.5-18.6 14.9-29.5c0 0-9.5 9.9-12.2 22.1 0 0 10.4.4 13.4-5.8C43.6 24 42.5 9.5 51 4.8c0 0-33.6 4.4-26 30.6 0 0-1.8 5.9-2 8.3 0 0 1 1.1 1.6-.3zM50.5 43.4S52 24.8 65.4 13.9c0 0-9.5 9.9-12.2 22.1 0 0 10.4.4 13.4-5.8S68.5 9.5 77 4.8c0 0-33.6 4.4-26 30.6 0 0-1.8 5.9-2 8.3-.1 0 .9 1.1 1.5-.3z"/>
</svg>
