<svg width="310" height="84" viewBox="0 0 310 84" fill="none" xmlns="http://www.w3.org/2000/svg">
<path d="M48.9441 26.5H61.4091C64.6791 26.5 67.5741 27.175 70.0941 28.525C72.6441 29.875 74.6241 31.75 76.0341 34.15C77.4441 36.52 78.1491 39.22 78.1491 42.25C78.1491 45.28 77.4441 47.995 76.0341 50.395C74.6241 52.765 72.6441 54.625 70.0941 55.975C67.5741 57.325 64.6791 58 61.4091 58H48.9441V26.5ZM61.2291 55.93C64.1391 55.93 66.7041 55.36 68.9241 54.22C71.1441 53.05 72.8541 51.43 74.0541 49.36C75.2541 47.29 75.8541 44.92 75.8541 42.25C75.8541 39.58 75.2541 37.21 74.0541 35.14C72.8541 33.07 71.1441 31.465 68.9241 30.325C66.7041 29.155 64.1391 28.57 61.2291 28.57H51.2391V55.93H61.2291ZM87.5618 39.64C88.2818 37.93 89.4068 36.625 90.9368 35.725C92.4668 34.795 94.3268 34.33 96.5168 34.33V36.535L95.9768 36.49C93.3668 36.49 91.3268 37.315 89.8568 38.965C88.3868 40.585 87.6518 42.85 87.6518 45.76V58H85.4018V34.51H87.5618V39.64ZM122.342 46.795H102.137C102.197 48.625 102.662 50.26 103.532 51.7C104.402 53.11 105.572 54.205 107.042 54.985C108.542 55.765 110.222 56.155 112.082 56.155C113.612 56.155 115.022 55.885 116.312 55.345C117.632 54.775 118.727 53.95 119.597 52.87L120.902 54.355C119.882 55.585 118.592 56.53 117.032 57.19C115.502 57.85 113.837 58.18 112.037 58.18C109.697 58.18 107.612 57.67 105.782 56.65C103.952 55.63 102.512 54.22 101.462 52.42C100.442 50.62 99.9316 48.565 99.9316 46.255C99.9316 43.975 100.412 41.935 101.372 40.135C102.362 38.305 103.712 36.88 105.422 35.86C107.132 34.84 109.052 34.33 111.182 34.33C113.312 34.33 115.217 34.84 116.897 35.86C118.607 36.85 119.942 38.245 120.902 40.045C121.892 41.845 122.387 43.885 122.387 46.165L122.342 46.795ZM111.182 36.31C109.532 36.31 108.047 36.685 106.727 37.435C105.407 38.155 104.342 39.19 103.532 40.54C102.752 41.86 102.302 43.36 102.182 45.04H120.182C120.092 43.36 119.642 41.86 118.832 40.54C118.022 39.22 116.957 38.185 115.637 37.435C114.317 36.685 112.832 36.31 111.182 36.31ZM135.287 58.18C133.397 58.18 131.597 57.895 129.887 57.325C128.177 56.755 126.842 56.035 125.882 55.165L126.917 53.365C127.877 54.175 129.107 54.85 130.607 55.39C132.137 55.93 133.727 56.2 135.377 56.2C137.747 56.2 139.487 55.81 140.597 55.03C141.737 54.25 142.307 53.17 142.307 51.79C142.307 50.8 141.992 50.02 141.362 49.45C140.762 48.88 140.012 48.46 139.112 48.19C138.212 47.92 136.967 47.635 135.377 47.335C133.517 47.005 132.017 46.645 130.877 46.255C129.737 45.865 128.762 45.235 127.952 44.365C127.142 43.495 126.737 42.295 126.737 40.765C126.737 38.905 127.502 37.375 129.032 36.175C130.592 34.945 132.797 34.33 135.647 34.33C137.147 34.33 138.632 34.54 140.102 34.96C141.572 35.38 142.772 35.935 143.702 36.625L142.667 38.425C141.707 37.735 140.612 37.21 139.382 36.85C138.152 36.49 136.892 36.31 135.602 36.31C133.412 36.31 131.762 36.715 130.652 37.525C129.542 38.335 128.987 39.4 128.987 40.72C128.987 41.77 129.302 42.595 129.932 43.195C130.562 43.765 131.327 44.2 132.227 44.5C133.157 44.77 134.447 45.07 136.097 45.4C137.927 45.73 139.397 46.09 140.507 46.48C141.647 46.84 142.607 47.44 143.387 48.28C144.167 49.12 144.557 50.275 144.557 51.745C144.557 53.695 143.747 55.255 142.127 56.425C140.507 57.595 138.227 58.18 135.287 58.18ZM156.776 58.18C154.886 58.18 153.086 57.895 151.376 57.325C149.666 56.755 148.331 56.035 147.371 55.165L148.406 53.365C149.366 54.175 150.596 54.85 152.096 55.39C153.626 55.93 155.216 56.2 156.866 56.2C159.236 56.2 160.976 55.81 162.086 55.03C163.226 54.25 163.796 53.17 163.796 51.79C163.796 50.8 163.481 50.02 162.851 49.45C162.251 48.88 161.501 48.46 160.601 48.19C159.701 47.92 158.456 47.635 156.866 47.335C155.006 47.005 153.506 46.645 152.366 46.255C151.226 45.865 150.251 45.235 149.441 44.365C148.631 43.495 148.226 42.295 148.226 40.765C148.226 38.905 148.991 37.375 150.521 36.175C152.081 34.945 154.286 34.33 157.136 34.33C158.636 34.33 160.121 34.54 161.591 34.96C163.061 35.38 164.261 35.935 165.191 36.625L164.156 38.425C163.196 37.735 162.101 37.21 160.871 36.85C159.641 36.49 158.381 36.31 157.091 36.31C154.901 36.31 153.251 36.715 152.141 37.525C151.031 38.335 150.476 39.4 150.476 40.72C150.476 41.77 150.791 42.595 151.421 43.195C152.051 43.765 152.816 44.2 153.716 44.5C154.646 44.77 155.936 45.07 157.586 45.4C159.416 45.73 160.886 46.09 161.996 46.48C163.136 46.84 164.096 47.44 164.876 48.28C165.656 49.12 166.046 50.275 166.046 51.745C166.046 53.695 165.236 55.255 163.616 56.425C161.996 57.595 159.716 58.18 156.776 58.18ZM222.967 41.755C225.217 42.175 226.927 43.06 228.097 44.41C229.297 45.76 229.897 47.515 229.897 49.675C229.897 52.345 228.922 54.4 226.972 55.84C225.022 57.28 222.127 58 218.287 58H204.247V26.5H217.387C220.807 26.5 223.462 27.205 225.352 28.615C227.272 29.995 228.232 31.975 228.232 34.555C228.232 36.355 227.752 37.87 226.792 39.1C225.862 40.33 224.587 41.215 222.967 41.755ZM206.542 28.48V41.035H217.297C220.057 41.035 222.172 40.51 223.642 39.46C225.142 38.38 225.892 36.805 225.892 34.735C225.892 32.695 225.142 31.15 223.642 30.1C222.172 29.02 220.057 28.48 217.297 28.48H206.542ZM218.287 56.02C221.347 56.02 223.657 55.495 225.217 54.445C226.807 53.365 227.602 51.715 227.602 49.495C227.602 47.275 226.807 45.64 225.217 44.59C223.657 43.54 221.347 43.015 218.287 43.015H206.542V56.02H218.287ZM246.545 58.18C244.325 58.18 242.315 57.67 240.515 56.65C238.745 55.63 237.35 54.22 236.33 52.42C235.31 50.59 234.8 48.535 234.8 46.255C234.8 43.975 235.31 41.935 236.33 40.135C237.35 38.305 238.745 36.88 240.515 35.86C242.315 34.84 244.325 34.33 246.545 34.33C248.765 34.33 250.76 34.84 252.53 35.86C254.33 36.88 255.74 38.305 256.76 40.135C257.78 41.935 258.29 43.975 258.29 46.255C258.29 48.535 257.78 50.59 256.76 52.42C255.74 54.22 254.33 55.63 252.53 56.65C250.76 57.67 248.765 58.18 246.545 58.18ZM246.545 56.155C248.345 56.155 249.95 55.735 251.36 54.895C252.8 54.055 253.925 52.885 254.735 51.385C255.575 49.885 255.995 48.175 255.995 46.255C255.995 44.335 255.575 42.625 254.735 41.125C253.925 39.625 252.8 38.455 251.36 37.615C249.95 36.775 248.345 36.355 246.545 36.355C244.745 36.355 243.125 36.775 241.685 37.615C240.275 38.455 239.15 39.625 238.31 41.125C237.5 42.625 237.095 44.335 237.095 46.255C237.095 48.175 237.5 49.885 238.31 51.385C239.15 52.885 240.275 54.055 241.685 54.895C243.125 55.735 244.745 56.155 246.545 56.155ZM279.375 58L271.32 47.515L263.265 58H260.7L270.015 45.895L261.195 34.51H263.76L271.32 44.275L278.88 34.51H281.4L272.58 45.895L282.03 58H279.375Z" fill="#111111"/>
<path d="M173.046 26.5H175.341V58H173.046V26.5ZM197.252 56.515C196.682 57.055 195.962 57.475 195.092 57.775C194.252 58.045 193.367 58.18 192.437 58.18C190.397 58.18 188.822 57.625 187.712 56.515C186.602 55.375 186.047 53.8 186.047 51.79V36.445H181.727V34.51H186.047V29.38H188.297V34.51H195.767V36.445H188.297V51.565C188.297 53.095 188.657 54.265 189.377 55.075C190.127 55.855 191.222 56.245 192.662 56.245C194.132 56.245 195.347 55.81 196.307 54.94L197.252 56.515Z" fill="#E77E83"/>
<path d="M42.4724 16.7514C41.0516 15.1074 39.3236 13.8939 37.3268 13.1893C36.5972 12.9153 36.1748 12.4847 35.906 11.7801C35.0228 9.43146 33.8324 7.27853 32.1812 5.39961C30.2228 3.20753 27.9188 1.75919 24.8852 2.0332C23.2724 2.18978 21.8132 2.77694 20.93 4.26443C20.2388 5.43875 19.5092 6.57393 18.7028 7.66997C16.9748 9.97948 16.8212 12.4064 18.3572 14.8725C18.9332 15.812 19.5476 16.7514 20.162 17.6909C20.5844 18.3172 20.6228 18.9044 20.2004 19.5698C19.8164 20.1961 19.4324 20.8224 19.0484 21.4096C17.5892 23.7583 18.05 26.1069 20.354 28.3773C20.2772 28.0641 20.2004 27.7901 20.162 27.5161C19.8548 26.1069 20.2772 24.9326 21.3524 24.0714C22.3892 23.2102 23.5412 22.4665 24.5396 21.6053C26.5748 19.883 26.8052 17.6909 26.114 15.1074C25.6916 15.2248 25.2692 15.3422 24.8468 15.4597C23.6948 15.7728 23.042 15.3422 22.7732 14.2071C22.6964 13.8156 22.5428 13.5808 22.1204 13.5808C21.6596 13.5808 21.6212 13.3067 21.698 12.9544C21.8516 12.1716 21.9668 11.3495 22.1204 10.5666C22.082 10.5275 21.9668 10.3318 21.8516 10.1752C21.5828 10.2535 21.4292 10.0186 21.1988 9.47061C20.93 8.8443 20.738 8.17885 21.0452 7.47425C21.506 8.29628 21.9668 9.07917 22.4276 9.86205C22.4276 9.86205 22.7732 10.3318 22.9652 10.5275C23.1572 10.7232 24.1172 11.2321 24.1556 11.2321C24.3476 11.3104 24.7316 11.4278 24.8468 11.467C25.8068 11.7801 26.7284 12.1716 27.7268 12.4456C28.8788 12.7979 28.8788 12.7587 28.9556 13.9722C29.1092 15.6945 29.6852 17.2212 30.914 18.4346C32.642 20.1178 34.7156 20.9399 37.0964 21.0182C39.17 21.0964 40.6292 22.2708 41.0132 24.2671C41.1668 25.05 40.9748 25.9112 40.9364 26.7332C41.0132 26.6549 41.1668 26.5375 41.3204 26.4201C41.8196 25.872 42.3572 25.3632 42.7796 24.7369C44.6996 22.075 44.5844 19.2175 42.4724 16.7514Z" fill="#E77E83"/>
<path d="M22.5792 30.221C24.4224 28.6943 25.5744 26.8154 25.4592 24.2319C25.92 24.4668 26.304 24.7016 26.7264 24.8582C27.8016 25.3279 28.8768 25.9151 30.1056 25.5628C30.7968 25.3671 31.4112 25.0148 32.0256 24.6233C33.4848 23.723 34.1376 23.7622 35.4048 24.9756C37.1712 26.6588 37.4784 28.4595 36.3264 30.6516C36.288 30.7298 36.2496 30.8473 36.2112 30.8864C35.2512 31.9825 35.1744 33.2742 35.2128 34.6834C35.2512 37.1495 35.136 39.6156 35.136 42.1208C35.136 47.7576 36.48 52.9638 39.552 57.7002C42.24 61.8886 44.9664 66.0771 47.6544 70.2264C47.7696 70.3829 47.8464 70.5395 48 70.7744C47.424 70.8918 46.8864 71.0484 46.3872 71.1658C44.16 71.5573 41.9328 72.1053 39.6672 72.301C33.5232 72.849 28.3008 71.0484 24.4608 65.8814C22.7712 63.5718 21.12 61.2232 19.5072 58.8354C14.7456 51.8286 8.5248 46.8573 0.6144 44.078C0.4608 44.0389 0.3072 43.9606 0 43.8432C0.576 43.7257 1.0368 43.6474 1.4976 43.6083C1.9584 43.53 2.4576 43.4909 2.9184 43.3734C8.9088 42.0425 14.976 40.9073 20.5824 38.2064C22.08 37.5018 23.5392 36.7189 24.6912 35.388C25.7664 34.1354 25.728 32.8045 24.4992 31.6693C23.8464 31.1604 23.232 30.7298 22.5792 30.221Z" fill="#E77E83"/>
<path d="M281.818 32.426C281.818 32.426 282.963 18.239 293.181 9.91952C293.181 9.91952 285.894 17.4959 283.897 26.8295C283.897 26.8295 291.849 27.1662 294.1 22.3854C296.352 17.6046 295.532 6.5213 301.994 2.9879C301.994 2.9879 276.363 6.34785 282.142 26.3497C282.142 26.3497 280.731 30.8381 280.603 32.6958C280.596 32.6809 281.37 33.5387 281.818 32.426Z" fill="url(#paint0_linear)"/>
<defs>
<linearGradient id="paint0_linear" x1="286.835" y1="8.52086" x2="295.339" y2="26.2861" gradientUnits="userSpaceOnUse">
<stop stop-color="#7ECB80"/>
<stop offset="0.2973" stop-color="#7ECB80"/>
<stop offset="1" stop-color="#7ECB80"/>
</linearGradient>
</defs>
</svg>
