<svg xmlns="http://www.w3.org/2000/svg" baseProfile="tiny" version="1.2" viewBox="0 0 95 96">
  <defs/>
  <path d="M30.6 29.6c-.5 0-.9.4-.9.9s.4.9.9.9.9-.4.9-.9-.4-.9-.9-.9z"/>
  <path d="M94.1 86.8h-1.8v-71h1.8c.5 0 .9-.4.9-.9s-.4-.9-.9-.9H78.7V1.7h2.9c.5 0 .9-.4.9-.9s-.4-.9-.9-.9H13.4c-.5 0-.9.4-.9.9s.4.9.9.9h2.9V14H.9c-.5 0-.9.4-.9.9s.4.9.9.9h1.8v71H.9c-.5 0-.9.4-.9.9s.4.9.9.9h15.4v4.7h-2.9c-.5 0-.9.4-.9.9s.4.9.9.9h68.2c.5 0 .9-.4.9-.9s-.4-.9-.9-.9h-2.9v-4.7h15.4c.5 0 .9-.4.9-.9s-.4-.9-.9-.9zm-77.8 0H4.4V64.3h4.8c.5 0 .9-.4.9-.9s-.4-.9-.9-.9H4.4V40h4.8c.5 0 .9-.4.9-.9s-.4-.9-.9-.9H4.4V15.8h11.9v71zm32.1-84v-1h21v18.7c0 1.6-1.3 2.8-2.8 2.8s-2.8-1.3-2.8-2.8v-9.4c0-2.6-2.1-4.7-4.7-4.7s-4.7 2.1-4.7 4.7v3.5c0 1.7-1.4 3-3 3s-3-1.4-3-3V2.8zM77 29.6H37c-.5 0-.9.4-.9.9s.4.9.9.9h40v32.3h-6.3c-.5 0-.9.4-.9.9s.4.9.9.9H77v27.8H18V65.4h40c.5 0 .9-.4.9-.9s-.4-.9-.9-.9H18V31.3h6.3c.5 0 .9-.4.9-.9s-.4-.9-.9-.9H18V1.7h28.6v12.9c0 2.6 2.1 4.8 4.8 4.8 2.6 0 4.8-2.1 4.8-4.8v-3.5c0-1.6 1.3-2.9 2.9-2.9S62 9.5 62 11.1v9.4c0 2.5 2 4.6 4.6 4.6s4.6-2 4.6-4.6V1.7H77v27.9zm13.6 8.7h-5.8c-.5 0-.9.4-.9.9s.4.9.9.9h5.8v22.5h-5.8c-.5 0-.9.4-.9.9s.4.9.9.9h5.8v22.5H78.7V15.8h11.9v22.5z"/>
  <path d="M64.4 65.4c.5 0 .9-.4.9-.9s-.4-.9-.9-.9-.9.4-.9.9.4.9.9.9z"/>
  <path fill="#7ECB80" d="M38.6 61s1.1-13.6 10.9-21.6c0 0-7 7.3-8.9 16.3 0 0 7.6.3 9.8-4.3 2.2-4.6 1.4-15.3 7.6-18.7 0 0-24.7 3.2-19.1 22.5 0 0-1.4 4.3-1.5 6.1 0 0 .7.8 1.2-.3z"/>
</svg>
