<svg xmlns="http://www.w3.org/2000/svg" baseProfile="tiny" version="1.2" viewBox="0 0 98 107">
  <defs/>
  <path d="M92.3 99.3V83.8c0-.5-.4-.9-.9-.9h-2.2l6.5-15.8c3.1-7.7 3.2-16.1.2-23.8L84.7 13.5c-.6-1.5-1.7-2.7-3.2-3.4-1.5-.7-3.2-.7-4.7-.1h-.1c-.1 0-.2.1-.2.1l-.6.3-.5-.4C68.3 3.6 59.1 0 49.5 0S30.7 3.6 23.6 10.1l-.5.4-.6-.3c-.1 0-.2-.1-.2-.1h-.1c-1.5-.6-3.2-.6-4.7.1-1.5.6-2.6 1.9-3.2 3.4L3.1 43.3C.2 51 .3 59.5 3.4 67.2L9.9 83H7.6c-.5 0-.9.4-.9.9v15.4c0 .5.4.9.9.9h1v5.8h1.8v-5.8h21v5.8h1.8v-5.8h1c.5 0 .9-.4.9-.9V83.8c0-.5-.4-.9-.9-.9h-1v-7.5l1.4.6c4.7 2 9.7 3 14.8 3s10.1-1 14.8-3l1.4-.6v7.5h-1c-.5 0-.9.4-.9.9v15.4c0 .5.4.9.9.9h1v5.8h1.8v-5.8h21v5.8h1.8v-5.8h1c.7.1 1.1-.3 1.1-.8zM75.1 14.1c.4-1.1 1.3-1.9 2.3-2.3 1-.4 2.2-.4 3.3.1 1 .4 1.8 1.3 2.2 2.3L94.2 44c2.8 7.3 2.7 15.2-.2 22.4L87.2 83H67.5v-6c0-6.5 1.5-13 4.4-18.9.8-1.7 1.3-3.7 1.3-5.6V37.6c0-2.1 1.8-3.9 3.8-3.9 1.8 0 3.3 1.3 3.7 3v22.9h1.8v-22-.2c0-1.4-.3-2.8-.8-4.1l-6.8-16.1c-.2-1-.2-2.1.2-3.1zM5 66.5C2.1 59.3 2 51.3 4.8 44L16 14.2c.4-1.1 1.2-1.9 2.2-2.3 1-.4 2.2-.5 3.3-.1 1 .4 1.9 1.2 2.3 2.3.4 1 .4 2.2 0 3.2L17 33.5c-.6 1.3-.8 2.7-.8 4.1v22.3H18v-22-.6-.4c.4-1.7 2-3 3.8-3 .3 0 .6 0 .9.1 1.7.4 2.9 1.9 2.9 3.7v15c0 1.9.4 3.9 1.3 5.6C30 64 31.5 70.5 31.5 77v6H11.8L5 66.5zm28.4 18.3v13.6H8.5V84.8h24.9zm32-11.2C60.5 76 55 77.2 49.5 77.2s-11-1.3-15.9-3.6l-.5-.2v-.6c-.5-5.4-2-10.5-4.4-15.4-.7-1.5-1.1-3.2-1.1-4.8v-15c0-3.2-2.5-5.7-5.6-5.8h-.6l-1.8.3 6-14.2c.6-1.5.6-3.2 0-4.6-.2-.3-.3-.6-.5-1l-.5-.7.7-.6C32 5 40.6 1.7 49.6 1.7c8.9 0 17.6 3.3 24.3 9.2l.8.7c-.2.3-.9 1.3-1.1 1.6-.6 1.5-.6 3.2 0 4.6L79.5 32l-1.8-.2h-.6c-3.1 0-5.6 2.6-5.6 5.8v14.9c0 1.7-.4 3.3-1.1 4.8-2.4 4.8-3.8 10-4.4 15.4v.6l-.6.3zm25.1 24.8H65.6V84.8h24.9v13.6z"/>
  <path fill="#7ECB80" d="M39.2 58.4s1.5-18.6 14.9-29.5c0 0-9.5 9.9-12.2 22.1 0 0 10.4.4 13.4-5.8 2.9-6.3 1.9-20.8 10.3-25.4 0 0-33.6 4.4-26 30.6 0 0-1.8 5.9-2 8.3 0 0 1 1.1 1.6-.3z"/>
</svg>
