<svg xmlns="http://www.w3.org/2000/svg" baseProfile="tiny" version="1.2" viewBox="0 0 106 106">
  <defs/>
  <path d="M66.4 47L47.9 23.1c-.2-.2-.5-.4-.7-.4-.3 0-.6.1-.7.4L27.8 46.8v.1l-.1.1c-3.6 4.4-5.6 10-5.6 15.7 0 13.7 11.2 24.9 24.9 24.9s24.9-11.2 24.9-24.9c0-5.8-2-11.3-5.5-15.7zM47 85.6c-12.7 0-23-10.3-23-23 0-5.3 1.9-10.5 5.2-14.6 0 0 0-.1.1-.1l.1-.1 17-21.6.7-.9.7.9 17 21.9c3.3 4.1 5.2 9.2 5.2 14.5 0 12.7-10.3 23-23 23z"/>
  <path d="M63.6 65.2h-.2c-.4 0-.8.3-.9.7-1.1 4.8-4.5 8.8-9.1 10.7-.2.1-.4.3-.5.5-.1.2-.1.5 0 .7.2.4.5.6.9.6.1 0 .2 0 .4-.1 5.2-2.1 9-6.6 10.3-12 0-.5-.3-1-.9-1.1zM63.9 59.6c.6 0 1-.4 1-1s-.4-1-1-1-1 .4-1 1c0 .5.4 1 1 1zM1.1 64.1c.1 0 .1 0 0 0 .6 0 1-.5.9-1.1-2-22 12.8-42.6 34.4-47.8 3.4-.8 7-1.3 10.5-1.3 6.1 0 12 1.2 17.6 3.6l1.7.7-1.6.9-1.4.8c-.5.3-.6.9-.4 1.3.2.3.5.5.8.5.2 0 .4 0 .5-.1l4.5-2.6c.2-.1.4-.4.4-.6.1-.2 0-.5-.1-.7l-2.5-4.5c-.2-.3-.5-.5-.8-.5-.2 0-.3 0-.5.1-.4.2-.6.7-.4 1.1l.5 1.7-1.5-.6c-5.4-2-10.9-3-16.7-3-3.7 0-7.4.4-11 1.3-11 2.6-20.8 9.2-27.3 18.5C2.2 41-.8 52.2.2 63.3c0 .5.5.8.9.8zM92.6 51.9h-.1c-.5.1-.9.6-.8 1.1 3 22-10.9 43.2-32.3 49.3-4.1 1.1-8.2 1.7-12.4 1.7-5.2 0-10.3-.9-15.2-2.7l-1.7-.6 1.5-1 1.8-1.1c.4-.3.6-.9.3-1.3-.2-.3-.5-.4-.8-.4-.2 0-.4 0-.5.2L28 99.9c-.4.3-.6.9-.3 1.3l2.8 4.4c.2.3.5.4.8.4.2 0 .4 0 .5-.2.3-.2.5-.6.4-.9l-.2-1.4 1.3.4c4.5 1.3 9 2.1 13.6 2.1 4.3 0 8.7-.6 12.9-1.8 10.9-3.1 20.4-10.1 26.5-19.6 6.1-9.4 8.7-20.7 7.2-31.8 0-.5-.4-.9-.9-.9zM23.7 81.8l-9.6-12.5c-.2-.2-.5-.4-.8-.4-.3 0-.6.2-.7.4L3 81.7c-1.9 2.5-3 5.6-3 8.6 0 7.5 6 13.6 13.3 13.6 7.4 0 13.3-6.1 13.3-13.6 0-3-1-6.1-2.9-8.5zM13.3 102C7.1 102 2 96.8 2 90.3c0-2.7.9-5.3 2.6-7.4v-.1l8-10.4.7-.9.7.9 8.1 10.5c1.7 2.1 2.6 4.7 2.6 7.4 0 6.5-5.1 11.7-11.4 11.7z"/>
  <path d="M19.5 89.4c-.6 0-1 .4-1 1 0 3-2.3 5.3-5.2 5.3-.6 0-1 .4-1 1s.4 1 1 1c3.9 0 7.1-3.3 7.1-7.3.1-.6-.4-1-.9-1z"/>
  <path fill="#7ECB80" d="M75.9 50.5S77.4 31.9 90.8 21c0 0-9.5 9.9-12.2 22.1 0 0 10.4.4 13.4-5.8 2.9-6.3 1.9-20.8 10.3-25.4 0 0-33.6 4.4-26 30.6 0 0-1.8 5.9-2 8.3 0 .1 1 1.2 1.6-.3z"/>
</svg>
